<svg width="480" height="640" viewBox="0 0 480 640" fill="none" xmlns="http://www.w3.org/2000/svg">
<path d="M319.5 480C319.5 568.089 248.089 639.499 160 639.499C71.9106 639.499 0.5 568.089 0.5 480C0.5 391.911 71.9106 320.5 160 320.5C248.089 320.5 319.5 391.911 319.5 480Z" fill="#5036E6" stroke="black"/>
<path d="M160.5 320.501C202.622 320.633 242.989 337.422 272.783 367.216C302.578 397.01 319.367 437.378 319.499 479.499H160.5V320.501Z" fill="#5036E6" stroke="black"/>
<path d="M159.5 639.499C117.378 639.368 77.0107 622.578 47.2165 592.784C17.4223 562.99 0.632642 522.622 0.500783 480.501H159.5V639.499Z" fill="#5036E6" stroke="black"/>
<path d="M319.499 480.501C319.367 522.622 302.578 562.99 272.783 592.784C242.989 622.578 202.622 639.368 160.5 639.499V480.501H319.499Z" fill="white" stroke="black"/>
<path d="M80.4989 480C80.4989 436.094 116.092 400.501 159.999 400.501C203.905 400.501 239.499 436.094 239.499 480C239.499 523.907 203.905 559.5 159.999 559.5C116.092 559.5 80.4989 523.907 80.4989 480Z" fill="black" stroke="black"/>
<path d="M80.5016 479.501C80.6329 458.597 88.9938 438.577 103.785 423.786C118.694 408.877 138.915 400.501 160 400.501C181.085 400.501 201.306 408.877 216.215 423.786C231.006 438.577 239.367 458.597 239.498 479.501L80.5016 479.501Z" fill="white" stroke="black"/>
<path d="M639.5 160C639.5 248.089 568.089 319.5 480 319.5C391.911 319.5 320.5 248.089 320.5 160C320.5 71.9106 391.911 0.5 480 0.5C568.089 0.5 639.5 71.9106 639.5 160Z" fill="#5036E6" stroke="black"/>
<path d="M479.5 319.499C437.378 319.367 397.011 302.578 367.217 272.784C337.422 242.989 320.633 202.622 320.501 160.5H479.5V319.499Z" fill="white" stroke="black"/>
<path d="M400.499 160C400.499 116.093 436.093 80.5 479.999 80.5C523.906 80.5 559.499 116.093 559.499 160C559.499 203.907 523.906 239.5 479.999 239.5C436.093 239.5 400.499 203.907 400.499 160Z" fill="black" stroke="black"/>
<path d="M400.502 159.5C400.633 138.596 408.994 118.576 423.785 103.785C438.694 88.8759 458.915 80.5 480 80.5C501.085 80.5 521.306 88.8759 536.215 103.785C551.006 118.576 559.367 138.596 559.498 159.5L400.502 159.5Z" fill="white" stroke="black"/>
<path d="M320.5 479.569C320.5 567.419 391.909 638.638 480 638.638C568.091 638.638 639.5 567.419 639.5 479.569C639.5 391.719 568.091 320.5 480 320.5C391.909 320.5 320.5 391.719 320.5 479.569Z" fill="#5036E6" stroke="black"/>
<path d="M320.501 480.931C320.633 522.938 337.422 563.196 367.216 592.909C397.01 622.623 437.378 639.368 479.5 639.499V480.931H320.501Z" fill="white" stroke="black"/>
<path d="M159.5 0.500763C71.6405 0.770386 0.5 72.0773 0.5 160C0.5 247.922 71.6405 319.229 159.5 319.499L159.5 0.500763Z" fill="#5036E6" stroke="black"/>
<path d="M160.5 319.499C181.276 319.434 201.841 315.311 221.038 307.359C240.389 299.343 257.973 287.595 272.784 272.784C287.594 257.973 299.343 240.389 307.359 221.038C315.311 201.841 319.434 181.276 319.499 160.5L160.5 160.5L160.5 319.499Z" fill="#5036E6" stroke="black"/>
<path d="M159.5 0.501144C117.378 0.632996 77.0107 17.4226 47.2165 47.2168C17.4223 77.0109 0.632641 117.379 0.500783 159.5L159.5 159.5L159.5 0.501144Z" fill="#5036E6" stroke="black"/>
<path d="M319.499 159.5C319.434 138.724 315.311 118.16 307.359 98.9623C299.343 79.6109 287.594 62.0277 272.784 47.2168C257.973 32.4059 240.389 20.6572 221.038 12.6416C201.841 4.68974 181.276 0.566269 160.5 0.501144L160.5 159.5L319.499 159.5Z" fill="black" stroke="black"/>
<path d="M239.5 160C239.5 116.093 203.907 80.5001 160 80.5001C116.093 80.5001 80.5 116.093 80.5 160C80.5 203.907 116.093 239.5 160 239.5C203.907 239.5 239.5 203.907 239.5 160Z" fill="black" stroke="black"/>
<g filter="url(#filter0_d_2_644)">
<path d="M160 240C181.217 240 201.566 231.571 216.569 216.569C231.571 201.566 240 181.217 240 160C240 138.783 231.571 118.434 216.569 103.432C201.566 88.4287 181.217 80.0001 160 80.0001L160 240Z" fill="white"/>
<path d="M160.5 239.498C181.404 239.367 201.424 231.006 216.215 216.215C231.124 201.306 239.5 181.085 239.5 160C239.5 138.915 231.124 118.694 216.215 103.785C201.424 88.9939 181.404 80.633 160.5 80.5017L160.5 239.498Z" stroke="black"/>
</g>
<defs>
<filter id="filter0_d_2_644" x="156" y="80.0001" width="88" height="168" filterUnits="userSpaceOnUse" color-interpolation-filters="sRGB">
<feFlood flood-opacity="0" result="BackgroundImageFix"/>
<feColorMatrix in="SourceAlpha" type="matrix" values="0 0 0 0 0 0 0 0 0 0 0 0 0 0 0 0 0 0 127 0" result="hardAlpha"/>
<feOffset dy="4"/>
<feGaussianBlur stdDeviation="2"/>
<feComposite in2="hardAlpha" operator="out"/>
<feColorMatrix type="matrix" values="0 0 0 0 0 0 0 0 0 0 0 0 0 0 0 0 0 0 0.25 0"/>
<feBlend mode="normal" in2="BackgroundImageFix" result="effect1_dropShadow_2_644"/>
<feBlend mode="normal" in="SourceGraphic" in2="effect1_dropShadow_2_644" result="shape"/>
</filter>
</defs>
</svg>
